<?xml version="1.0" encoding="UTF-8"?>
<svg version="1.1" xmlns="http://www.w3.org/2000/svg" width="650" height="650">
<path d="M0 0 C214.5 0 429 0 650 0 C650 214.5 650 429 650 650 C435.5 650 221 650 0 650 C0 435.5 0 221 0 0 Z " fill="#5AC6F9" transform="translate(0,0)"/>
<path d="M0 0 C10.54203264 8.02816332 19.84305066 18.1536806 23 31.35546875 C23.97307765 34.38130644 23.97307765 34.38130644 27.01953125 35.37109375 C28.13972656 35.61859375 29.25992188 35.86609375 30.4140625 36.12109375 C36.54338761 37.72477526 39.8253511 39.6175286 44.2265625 44.12109375 C44.0390625 46.49609375 44.0390625 46.49609375 43.2265625 49.12109375 C41.58104288 49.83837153 39.91233961 50.50434603 38.2265625 51.12109375 C37.9378125 51.74113281 37.6490625 52.36117187 37.3515625 53 C35.91272393 55.71281022 34.2838184 56.44021946 31.6640625 57.99609375 C28.53922276 60.32352622 27.38447611 61.41877081 26.51953125 65.265625 C26.40516097 67.67803994 26.33528852 70.09288186 26.3046875 72.5078125 C25.94786452 89.01087528 16.53014154 104.19596539 4.921875 115.33203125 C-5.86176489 124.5599985 -18.16923298 129.05347901 -31.7734375 132.12109375 C-31.7734375 134.10109375 -31.7734375 136.08109375 -31.7734375 138.12109375 C-30.5771875 137.91484375 -29.3809375 137.70859375 -28.1484375 137.49609375 C-24.2158357 136.98527537 -21.4613132 137.55374658 -17.7734375 139.12109375 C-17.7734375 140.11109375 -17.7734375 141.10109375 -17.7734375 142.12109375 C-19.7534375 142.12109375 -21.7334375 142.12109375 -23.7734375 142.12109375 C-22.7834375 143.11109375 -21.7934375 144.10109375 -20.7734375 145.12109375 C-21.1034375 146.11109375 -21.4334375 147.10109375 -21.7734375 148.12109375 C-24.26705321 146.91727927 -26.45486833 145.66680653 -28.7734375 144.12109375 C-31.51216705 143.66337312 -31.51216705 143.66337312 -34.4609375 143.49609375 C-35.45480469 143.42132812 -36.44867188 143.3465625 -37.47265625 143.26953125 C-38.23191406 143.22054687 -38.99117188 143.1715625 -39.7734375 143.12109375 C-39.7734375 142.13109375 -39.7734375 141.14109375 -39.7734375 140.12109375 C-38.1234375 139.79109375 -36.4734375 139.46109375 -34.7734375 139.12109375 C-35.4334375 137.14109375 -36.0934375 135.16109375 -36.7734375 133.12109375 C-37.835625 133.13269531 -38.8978125 133.14429688 -39.9921875 133.15625 C-53.93015371 133.26164105 -53.93015371 133.26164105 -60.7734375 132.12109375 C-60.4434375 134.76109375 -60.1134375 137.40109375 -59.7734375 140.12109375 C-55.8134375 140.12109375 -51.8534375 140.12109375 -47.7734375 140.12109375 C-47.7734375 141.44109375 -47.7734375 142.76109375 -47.7734375 144.12109375 C-49.0934375 144.12109375 -50.4134375 144.12109375 -51.7734375 144.12109375 C-51.1134375 144.78109375 -50.4534375 145.44109375 -49.7734375 146.12109375 C-49.7734375 147.11109375 -49.7734375 148.10109375 -49.7734375 149.12109375 C-51.91123478 148.66299433 -53.62996728 148.2056387 -55.5234375 147.08984375 C-58.46445455 145.82357252 -60.83485275 145.92677669 -64.0234375 145.99609375 C-65.10109375 146.01414062 -66.17875 146.0321875 -67.2890625 146.05078125 C-68.10890625 146.07398438 -68.92875 146.0971875 -69.7734375 146.12109375 C-69.5234375 144.24609375 -69.5234375 144.24609375 -68.7734375 142.12109375 C-67.4534375 141.46109375 -66.1334375 140.80109375 -64.7734375 140.12109375 C-64.7734375 137.15109375 -64.7734375 134.18109375 -64.7734375 131.12109375 C-65.82917969 130.91806641 -65.82917969 130.91806641 -66.90625 130.7109375 C-80.39385457 127.77042841 -91.09219705 121.93547503 -100.7734375 112.12109375 C-101.35738281 111.5796875 -101.94132812 111.03828125 -102.54296875 110.48046875 C-103.7734375 109.12109375 -103.7734375 109.12109375 -103.7734375 107.12109375 C-105.2584375 107.61609375 -105.2584375 107.61609375 -106.7734375 108.12109375 C-114.34053625 108.64296263 -121.10265981 107.35521983 -127.3359375 102.80859375 C-129.7734375 100.12109375 -129.7734375 100.12109375 -130.3984375 96.99609375 C-129.7734375 94.12109375 -129.7734375 94.12109375 -127.7734375 92.24609375 C-127.1134375 91.87484375 -126.4534375 91.50359375 -125.7734375 91.12109375 C-126.25554687 90.67378906 -126.73765625 90.22648437 -127.234375 89.765625 C-133.92538096 83.36137644 -133.92538096 83.36137644 -134.7734375 79.12109375 C-134.6484375 75.43359375 -134.6484375 75.43359375 -133.7734375 72.12109375 C-131.42292453 70.03174889 -130.08320431 70.10732634 -126.9609375 70.24609375 C-123.06684721 71.31505971 -120.24960072 73.07242004 -116.7734375 75.12109375 C-116.78914795 74.55825684 -116.8048584 73.99541992 -116.82104492 73.41552734 C-117.41914657 48.64856693 -112.7720716 27.18435852 -95.27734375 8.53515625 C-69.07460157 -16.72739393 -30.05133222 -20.35871943 0 0 Z " fill="#F4D150" transform="translate(219.7734375,396.87890625)"/>
<path d="M0 0 C1.86328949 -0.01073296 1.86328949 -0.01073296 3.76422119 -0.02168274 C5.14327978 -0.02452293 6.52233864 -0.02723467 7.90139771 -0.02983093 C9.35183881 -0.03609647 10.80227832 -0.04274335 12.25271606 -0.04974365 C17.01727178 -0.07077154 21.78182777 -0.08114319 26.54641724 -0.09111023 C28.18664695 -0.09515792 29.8268765 -0.09927485 31.46710587 -0.10346031 C39.17126496 -0.12250728 46.87541448 -0.13674071 54.57959259 -0.14507228 C63.47466436 -0.15485058 72.36948768 -0.18118747 81.26447189 -0.22157317 C88.13929039 -0.25171673 95.01403759 -0.26653938 101.8889209 -0.26985329 C105.99548563 -0.27220535 110.10178477 -0.28118597 114.20827866 -0.30631447 C118.07103476 -0.32957034 121.93334991 -0.33383871 125.79615784 -0.32355309 C127.21312551 -0.32305704 128.63011472 -0.32939784 130.04701614 -0.34310913 C131.98276091 -0.36079206 133.91869663 -0.3513483 135.85449219 -0.34057617 C136.93738966 -0.34296453 138.02028713 -0.34535288 139.13599968 -0.34781361 C142.78495733 0.27111564 144.44798178 1.56249257 147.05422974 4.14717102 C147.98907682 6.95171227 148.19526877 8.72514335 148.23123169 11.63105774 C148.25048454 12.98794205 148.25048454 12.98794205 148.27012634 14.37223816 C148.27751328 15.34726288 148.28490021 16.3222876 148.29251099 17.32685852 C148.30058273 18.33177338 148.30865448 19.33668823 148.31697083 20.37205505 C148.33080214 22.49873635 148.34152856 24.62543976 148.34939575 26.75215149 C148.36662674 30.00274135 148.410524 33.25231886 148.45462036 36.50263977 C148.46474594 38.56903854 148.47326246 40.63544596 148.48001099 42.70185852 C148.49751907 43.67283478 148.51502716 44.64381104 148.5330658 45.64421082 C148.51907315 50.00090952 148.48766627 52.44867459 146.14871216 56.2179718 C142.21165596 59.84434062 140.59283063 60.14717102 135.05422974 60.14717102 C135.05422974 78.62717102 135.05422974 97.10717102 135.05422974 116.14717102 C89.84422974 116.14717102 44.63422974 116.14717102 -1.94577026 116.14717102 C-1.94577026 97.66717102 -1.94577026 79.18717102 -1.94577026 60.14717102 C-3.92577026 59.81717102 -5.90577026 59.48717102 -7.94577026 59.14717102 C-12.52204145 55.99462865 -12.52204145 55.99462865 -13.94577026 53.14717102 C-14.06028976 51.69877079 -14.11513064 50.24540909 -14.13864136 48.79267883 C-14.15470428 47.89124146 -14.17076721 46.98980408 -14.18731689 46.06105042 C-14.23179643 41.93156172 -14.27284232 37.80223399 -14.29586792 33.67256165 C-14.31241586 31.4960205 -14.33969037 29.31953343 -14.37789917 27.14326477 C-14.43273743 24.0036553 -14.45455411 20.86532029 -14.46920776 17.72529602 C-14.49187714 16.75634399 -14.51454651 15.78739197 -14.53790283 14.78907776 C-14.52397922 10.32358402 -14.43882065 7.13412148 -11.60055542 3.54853821 C-7.75037787 0.06588727 -5.01219034 0.01979359 0 0 Z " fill="#5E9F40" transform="translate(496.9457702636719,533.8528289794922)"/>
<path d="M0 0 C45.21 0 90.42 0 137 0 C137 11.55 137 23.1 137 35 C139.31 35.33 141.62 35.66 144 36 C146.875 38.5 146.875 38.5 149 41 C149.33 41.33 149.66 41.66 150 42 C150.10848066 43.41581164 150.14901211 44.83692617 150.16113281 46.25683594 C150.17074036 47.16157654 150.1803479 48.06631714 150.19024658 48.99847412 C150.1966214 50.47649506 150.1966214 50.47649506 150.203125 51.984375 C150.20882507 52.99211975 150.21452515 53.9998645 150.22039795 55.03814697 C150.2298659 57.17678777 150.23638902 59.31544327 150.24023438 61.45410156 C150.24991783 64.72226618 150.28091543 67.98979625 150.3125 71.2578125 C150.31903195 73.33332959 150.32428167 75.40885119 150.328125 77.484375 C150.3404718 78.46162537 150.3528186 79.43887573 150.36553955 80.44573975 C150.33688905 89.20337016 150.33688905 89.20337016 147 93 C143.64798717 95.14212523 140.91198551 95.253168 136.97866821 95.26069641 C135.74495987 95.26778122 134.51125153 95.27486603 133.24015808 95.28216553 C131.87576257 95.27987177 130.51136741 95.27736208 129.14697266 95.2746582 C127.70785762 95.27900617 126.2687449 95.2841896 124.82963562 95.29014587 C120.92254336 95.30353915 117.01554781 95.30411411 113.10843706 95.30158257 C109.84555799 95.30051292 106.5826985 95.30539616 103.31982362 95.310188 C95.62075295 95.32128466 87.92173106 95.32171992 80.22265625 95.31567383 C72.28373464 95.30963515 64.34499032 95.32194194 56.40609896 95.3432439 C49.58728583 95.36086675 42.7685291 95.36686012 35.94969404 95.36360615 C31.87838699 95.36179399 27.80720636 95.36442265 23.73591995 95.37832069 C19.90601483 95.39090532 16.07638569 95.38894908 12.24648476 95.37590981 C10.84285069 95.37354571 9.43919716 95.37627277 8.0355854 95.38453293 C6.1155155 95.39501534 4.19536684 95.38508877 2.27529907 95.3742218 C1.20199656 95.37438954 0.12869404 95.37455729 -0.9771328 95.37473011 C-4.52575077 94.93482524 -6.93629316 93.81525524 -10 92 C-12.0107333 89.18410958 -12.25774873 86.81314406 -12.29052734 83.40258789 C-12.30328705 82.49807388 -12.31604675 81.59355988 -12.32919312 80.66163635 C-12.33141876 79.69177292 -12.33364441 78.72190948 -12.3359375 77.72265625 C-12.3425943 76.71915634 -12.3492511 75.71565643 -12.35610962 74.68174744 C-12.36622729 72.56104361 -12.37092691 70.44030801 -12.37060547 68.31958008 C-12.37497942 65.07775394 -12.41131123 61.83728852 -12.44921875 58.59570312 C-12.45508693 56.53385882 -12.45905631 54.47200805 -12.4609375 52.41015625 C-12.47530853 51.44231705 -12.48967957 50.47447784 -12.50448608 49.47731018 C-12.47504545 45.13452822 -12.42707238 42.68836532 -10.09619141 38.93139648 C-6.57029193 35.68269036 -4.86348791 35 0 35 C0 23.45 0 11.9 0 0 Z " fill="#5E9F40" transform="translate(495,0)"/>
<path d="M0 0 C1.17632492 -0.00990463 2.35264984 -0.01980927 3.56462097 -0.03001404 C4.85665436 -0.02551239 6.14868774 -0.02101074 7.47987366 -0.01637268 C8.85312456 -0.02207439 10.22637072 -0.02903787 11.59960938 -0.03717041 C15.33105438 -0.05513977 19.06226472 -0.05392637 22.79374003 -0.04822803 C25.90764712 -0.04514144 29.02150878 -0.05122273 32.13540941 -0.05726677 C39.4810634 -0.07132293 46.82660111 -0.06974183 54.17225647 -0.05836487 C61.7528298 -0.04688357 69.33304936 -0.0609568 76.91357607 -0.08776134 C83.4198277 -0.10990673 89.9259682 -0.11655834 96.43225485 -0.11068493 C100.31910868 -0.1073112 104.20573573 -0.10975769 108.09255791 -0.12693596 C111.74770673 -0.14238465 115.40233094 -0.13847335 119.05745888 -0.11963081 C121.03907201 -0.11417776 123.02070857 -0.12847497 125.00227356 -0.14332581 C126.1814183 -0.13349167 127.36056305 -0.12365753 128.57543945 -0.11352539 C129.60026397 -0.11331611 130.62508848 -0.11310682 131.68096828 -0.1128912 C135.05233375 0.51911438 136.23774975 1.74374174 138.35121155 4.38768005 C138.85241699 6.32237244 138.85241699 6.32237244 138.85292053 8.35838318 C138.86230148 9.12597961 138.87168243 9.89357605 138.88134766 10.68443298 C138.86449669 11.91425903 138.86449669 11.91425903 138.8473053 13.16893005 C138.84876053 14.01942932 138.85021576 14.86992859 138.85171509 15.74620056 C138.85005756 17.54160493 138.83851252 19.33702372 138.81776428 21.13230896 C138.78881147 23.87820375 138.79715731 26.62216705 138.81019592 29.3681488 C138.80395812 31.11425192 138.79556686 32.86034895 138.7848053 34.60643005 C138.78774094 35.42631409 138.79067657 36.24619812 138.79370117 37.09092712 C138.72055005 41.51774631 138.57445743 44.25347561 135.35121155 47.38768005 C132.76998806 47.88545799 132.76998806 47.88545799 129.61303711 47.88215637 C127.81897179 47.89473984 127.81897179 47.89473984 125.98866272 47.90757751 C124.67478577 47.8963385 123.36090881 47.88509949 122.00721741 47.8735199 C120.61101933 47.87566553 119.214823 47.87954287 117.81863403 47.88502502 C114.02523438 47.89472777 110.23230457 47.87940462 106.43896174 47.85911894 C102.47340209 47.84156921 98.50785741 47.84507259 94.54226685 47.84584045 C87.88336815 47.84396679 81.22465163 47.82659306 74.56581116 47.79930115 C66.86031668 47.7678367 59.15502168 47.75730535 51.4494676 47.75877225 C44.04428197 47.75999173 36.6391615 47.74979165 29.23399544 47.73318863 C26.0789241 47.72611635 22.92387581 47.7224612 19.76879692 47.72140121 C16.05630724 47.71939632 12.34398591 47.70721953 8.63155174 47.68706894 C6.61379597 47.67841324 4.59600567 47.67956417 2.57823181 47.68095398 C1.38500809 47.67242401 0.19178436 47.66389404 -1.03759766 47.65510559 C-2.07901444 47.6517539 -3.12043123 47.64840221 -4.19340611 47.64494896 C-6.64878845 47.38768005 -6.64878845 47.38768005 -8.64878845 45.38768005 C-8.90948486 43.57287598 -8.90948486 43.57287598 -8.92344666 41.35276794 C-8.93297867 40.5217305 -8.94251068 39.69069305 -8.95233154 38.83447266 C-8.95142014 37.93550766 -8.95050873 37.03654266 -8.9495697 36.1103363 C-8.95385483 35.18804733 -8.95813995 34.26575836 -8.96255493 33.31552124 C-8.96830404 31.3627759 -8.96879424 29.41000913 -8.96446228 27.45726013 C-8.96130472 24.4655967 -8.98474575 21.47492406 -9.01011658 18.48338318 C-9.01238971 16.58820214 -9.013093 14.69301843 -9.0120697 12.7978363 C-9.02127945 11.90089554 -9.0304892 11.00395477 -9.03997803 10.07983398 C-9.03374924 9.24564438 -9.02752045 8.41145477 -9.02110291 7.55198669 C-9.02173233 6.81855545 -9.02236176 6.08512421 -9.02301025 5.32946777 C-8.05472776 0.30517724 -4.5184734 0.0107174 0 0 Z " fill="#61A342" transform="translate(499.64878845214844,538.6123199462891)"/>
<path d="M0 0 C1.19322372 -0.00852997 2.38644745 -0.01705994 3.61582947 -0.02584839 C4.93173065 -0.02494202 6.24763184 -0.02403564 7.60340881 -0.02310181 C8.99783693 -0.02908358 10.39226172 -0.0358883 11.78668213 -0.04345703 C15.5800502 -0.06115954 19.37332812 -0.06581417 23.1667335 -0.0670886 C26.33038369 -0.06898507 29.49401275 -0.07633964 32.65765482 -0.08343279 C40.11972689 -0.09973029 47.58175068 -0.10460049 55.0438385 -0.10317993 C62.74879446 -0.10197793 70.45347055 -0.12308803 78.15835565 -0.15466726 C84.7673188 -0.18079235 91.37619034 -0.19154883 97.98520476 -0.19026911 C101.93521265 -0.18975839 105.88497191 -0.195502 109.83492851 -0.21662521 C113.54913183 -0.2359447 117.26284775 -0.23617587 120.97706795 -0.22159195 C122.99348932 -0.21849318 125.0099104 -0.2352239 127.02626038 -0.25247192 C128.22230392 -0.24408295 129.41834747 -0.23569397 130.65063477 -0.22705078 C131.69242858 -0.22814032 132.73422239 -0.22922985 133.80758572 -0.2303524 C136.3888092 0.26742554 136.3888092 0.26742554 138.22219181 2.05016136 C140.06830646 5.55887288 139.83626967 9.17588914 139.82240295 13.04867554 C139.82764481 13.8991748 139.83288666 14.74967407 139.83828735 15.62594604 C139.84470111 17.42130442 139.8433789 19.21670485 139.83485413 21.01205444 C139.82633814 23.75809497 139.85512227 26.5020589 139.88685608 29.24789429 C139.88846809 30.99398741 139.88789057 32.74008422 139.88490295 34.48617554 C139.89613693 35.30605957 139.90737091 36.1259436 139.91894531 36.97067261 C139.90956436 37.73826904 139.90018341 38.50586548 139.89051819 39.29672241 C139.89035202 39.96860596 139.89018585 40.6404895 139.89001465 41.33273315 C139.14034133 44.22653106 137.67938111 45.38907248 135.3888092 47.26742554 C132.71856594 47.76799679 132.71856594 47.76799679 129.61303711 47.76863098 C128.43389236 47.77846512 127.25474762 47.78829926 126.03987122 47.7984314 C124.10485748 47.78392944 124.10485748 47.78392944 122.13075256 47.76913452 C120.75573168 47.77291834 119.38071461 47.77841891 118.00570679 47.7855072 C114.27429418 47.79946991 110.54334224 47.7882873 106.81195521 47.77179599 C102.90825329 47.75794876 99.00457821 47.76440508 95.1008606 47.76792908 C88.54629589 47.77063115 81.99191432 47.75715489 75.43739319 47.73397827 C67.85625277 47.70735736 60.27541834 47.7056249 52.69424719 47.71736664 C45.40384751 47.72813958 38.11355867 47.72196191 30.8231678 47.70781136 C27.7191411 47.70204843 24.61519543 47.70213658 21.51116753 47.70687675 C17.85769872 47.71164344 14.20456572 47.70155815 10.55116081 47.6799221 C8.56819642 47.67168888 6.58518808 47.67821065 4.60221863 47.68511963 C3.42589371 47.675215 2.24956879 47.66531036 1.03759766 47.65510559 C-0.49907358 47.65146075 -0.49907358 47.65146075 -2.06678867 47.64774227 C-4.6111908 47.26742554 -4.6111908 47.26742554 -6.44085121 45.86455727 C-7.93844311 43.82083289 -7.98566831 42.62360587 -7.98350525 40.1031189 C-7.98973404 39.26892929 -7.99596283 38.43473969 -8.00238037 37.57527161 C-7.99317062 36.67833084 -7.98396088 35.78139008 -7.97447205 34.85726929 C-7.97497055 33.93402359 -7.97546906 33.01077789 -7.97598267 32.05955505 C-7.97364259 30.10855964 -7.96391797 28.15756118 -7.94737244 26.20663452 C-7.92375413 23.21295326 -7.92681512 20.2201608 -7.93345642 17.22640991 C-7.9278806 15.33252437 -7.92077133 13.43864259 -7.91197205 11.54476929 C-7.91288345 10.64580429 -7.91379486 9.74683929 -7.91473389 8.82063293 C-7.90520187 7.98959549 -7.89566986 7.15855804 -7.885849 6.30233765 C-7.88124161 5.569702 -7.87663422 4.83706635 -7.87188721 4.08222961 C-7.21430108 -0.4954705 -3.77238462 0.01214102 0 0 Z " fill="#62A342" transform="translate(498.61119079589844,42.732574462890625)"/>
<path d="M0 0 C1.86328949 -0.01073296 1.86328949 -0.01073296 3.76422119 -0.02168274 C5.14327978 -0.02452293 6.52233864 -0.02723467 7.90139771 -0.02983093 C9.35183881 -0.03609647 10.80227832 -0.04274335 12.25271606 -0.04974365 C17.01727178 -0.07077154 21.78182777 -0.08114319 26.54641724 -0.09111023 C28.18664695 -0.09515792 29.8268765 -0.09927485 31.46710587 -0.10346031 C39.17126496 -0.12250728 46.87541448 -0.13674071 54.57959259 -0.14507228 C63.47466436 -0.15485058 72.36948768 -0.18118747 81.26447189 -0.22157317 C88.13929039 -0.25171673 95.01403759 -0.26653938 101.8889209 -0.26985329 C105.99548563 -0.27220535 110.10178477 -0.28118597 114.20827866 -0.30631447 C118.07103476 -0.32957034 121.93334991 -0.33383871 125.79615784 -0.32355309 C127.21312551 -0.32305704 128.63011472 -0.32939784 130.04701614 -0.34310913 C131.98276091 -0.36079206 133.91869663 -0.3513483 135.85449219 -0.34057617 C136.93738966 -0.34296453 138.02028713 -0.34535288 139.13599968 -0.34781361 C142.78495733 0.27111564 144.44798178 1.56249257 147.05422974 4.14717102 C147.98907682 6.95171227 148.19526877 8.72514335 148.23123169 11.63105774 C148.25048454 12.98794205 148.25048454 12.98794205 148.27012634 14.37223816 C148.27751328 15.34726288 148.28490021 16.3222876 148.29251099 17.32685852 C148.30058273 18.33177338 148.30865448 19.33668823 148.31697083 20.37205505 C148.33080214 22.49873635 148.34152856 24.62543976 148.34939575 26.75215149 C148.36662674 30.00274135 148.410524 33.25231886 148.45462036 36.50263977 C148.46474594 38.56903854 148.47326246 40.63544596 148.48001099 42.70185852 C148.49751907 43.67283478 148.51502716 44.64381104 148.5330658 45.64421082 C148.51907315 50.00090952 148.48766627 52.44867459 146.14871216 56.2179718 C142.21165596 59.84434062 140.59283063 60.14717102 135.05422974 60.14717102 C135.05422974 78.62717102 135.05422974 97.10717102 135.05422974 116.14717102 C132.74422974 116.14717102 130.43422974 116.14717102 128.05422974 116.14717102 C128.05422974 97.33717102 128.05422974 78.52717102 128.05422974 59.14717102 C87.79422974 59.14717102 47.53422974 59.14717102 6.05422974 59.14717102 C6.05422974 77.95717102 6.05422974 96.76717102 6.05422974 116.14717102 C3.41422974 116.14717102 0.77422974 116.14717102 -1.94577026 116.14717102 C-1.94577026 97.66717102 -1.94577026 79.18717102 -1.94577026 60.14717102 C-3.92577026 59.81717102 -5.90577026 59.48717102 -7.94577026 59.14717102 C-12.52204145 55.99462865 -12.52204145 55.99462865 -13.94577026 53.14717102 C-14.06028976 51.69877079 -14.11513064 50.24540909 -14.13864136 48.79267883 C-14.15470428 47.89124146 -14.17076721 46.98980408 -14.18731689 46.06105042 C-14.23179643 41.93156172 -14.27284232 37.80223399 -14.29586792 33.67256165 C-14.31241586 31.4960205 -14.33969037 29.31953343 -14.37789917 27.14326477 C-14.43273743 24.0036553 -14.45455411 20.86532029 -14.46920776 17.72529602 C-14.49187714 16.75634399 -14.51454651 15.78739197 -14.53790283 14.78907776 C-14.52397922 10.32358402 -14.43882065 7.13412148 -11.60055542 3.54853821 C-7.75037787 0.06588727 -5.01219034 0.01979359 0 0 Z M-4.77543068 6.55003929 C-6.27302258 8.59376367 -6.32024778 9.79099069 -6.31808472 12.31147766 C-6.32431351 13.14566727 -6.3305423 13.97985687 -6.33695984 14.83932495 C-6.32775009 15.73626572 -6.31854034 16.63320648 -6.30905151 17.55732727 C-6.30955002 18.48057297 -6.31004852 19.40381866 -6.31056213 20.3550415 C-6.30822206 22.30603692 -6.29849743 24.25703538 -6.2819519 26.20796204 C-6.2583336 29.2016433 -6.26139459 32.19443575 -6.26803589 35.18818665 C-6.26246007 37.08207219 -6.2553508 38.97595396 -6.24655151 40.86982727 C-6.24746292 41.76879227 -6.24837433 42.66775726 -6.24931335 43.59396362 C-6.23978134 44.42500107 -6.23024933 45.25603851 -6.22042847 46.11225891 C-6.21582108 46.84489456 -6.21121368 47.57753021 -6.20646667 48.33236694 C-6.09481325 50.39771361 -6.09481325 50.39771361 -3.94577026 52.14717102 C-1.37874916 52.45792554 -1.37874916 52.45792554 1.66542053 52.41459656 C2.85864426 52.42312653 4.05186798 52.43165649 5.28125 52.44044495 C6.59715118 52.43953857 7.91305237 52.4386322 9.26882935 52.43769836 C10.66325746 52.44368013 12.05768226 52.45048486 13.45210266 52.45805359 C17.24547074 52.47575609 21.03874865 52.48041073 24.83215404 52.48168516 C27.99580422 52.48358163 31.15943328 52.49093619 34.32307535 52.49802935 C41.78514742 52.51432685 49.24717122 52.51919704 56.70925903 52.51777649 C64.41421499 52.51657449 72.11889108 52.53768458 79.82377619 52.56926382 C86.43273934 52.5953889 93.04161087 52.60614539 99.65062529 52.60486567 C103.60063318 52.60435495 107.55039245 52.61009856 111.50034904 52.63122177 C115.21455237 52.65054125 118.92826829 52.65077243 122.64248848 52.63618851 C124.65890985 52.63308974 126.67533093 52.64982045 128.69168091 52.66706848 C130.48574623 52.65448502 130.48574623 52.65448502 132.3160553 52.64164734 C133.35784911 52.64273687 134.39964293 52.64382641 135.47300625 52.64494896 C138.15861115 52.37190206 138.15861115 52.37190206 139.88761234 50.3644352 C141.73372699 46.85572368 141.5016902 43.23870741 141.48782349 39.36592102 C141.49306534 38.51542175 141.49830719 37.66492249 141.50370789 36.78865051 C141.51012164 34.99329214 141.50879943 33.19789171 141.50027466 31.40254211 C141.49175867 28.65650159 141.5205428 25.91253766 141.55227661 23.16670227 C141.55388862 21.42060914 141.5533111 19.67451234 141.55032349 17.92842102 C141.56717445 16.69859497 141.56717445 16.69859497 141.58436584 15.44392395 C141.57498489 14.67632751 141.56560394 13.90873108 141.55593872 13.11787415 C141.55577255 12.4459906 141.55560638 11.77410706 141.55543518 11.0818634 C140.80576186 8.1880655 139.34480164 7.02552407 137.05422974 5.14717102 C134.32805294 4.55132496 134.32805294 4.55132496 131.27845764 4.64596558 C130.0993129 4.63613144 128.92016815 4.6262973 127.70529175 4.61616516 C126.41528259 4.62583313 125.12527344 4.6355011 123.7961731 4.64546204 C122.42115221 4.64167822 121.04613514 4.63617765 119.67112732 4.62908936 C115.93971471 4.61512665 112.20876277 4.62630926 108.47737575 4.64280057 C104.57367383 4.6566478 100.66999874 4.65019148 96.76628113 4.64666748 C90.21171642 4.64396541 83.65733485 4.65744167 77.10281372 4.68061829 C69.5216733 4.7072392 61.94083887 4.70897165 54.35966772 4.69722992 C47.06926804 4.68645698 39.7789792 4.69263465 32.48858833 4.7067852 C29.38456164 4.71254813 26.28061596 4.71245997 23.17658806 4.7077198 C19.52311925 4.70295312 15.86998625 4.71303841 12.21658134 4.73467445 C10.23361695 4.74290768 8.25060861 4.73638591 6.26763916 4.72947693 C5.09131424 4.73938156 3.91498932 4.74928619 2.70301819 4.75949097 C1.6785707 4.76192086 0.65412321 4.76435076 -0.40136814 4.76685429 C-2.98554208 4.94307936 -2.98554208 4.94307936 -4.77543068 6.55003929 Z " fill="#23411C" transform="translate(496.9457702636719,533.8528289794922)"/>
<path d="M0 0 C2.64 0 5.28 0 8 0 C8 11.88 8 23.76 8 36 C48.26 36 88.52 36 130 36 C130 24.12 130 12.24 130 0 C132.31 0 134.62 0 137 0 C137 11.55 137 23.1 137 35 C139.31 35.33 141.62 35.66 144 36 C146.875 38.5 146.875 38.5 149 41 C149.33 41.33 149.66 41.66 150 42 C150.10848066 43.41581164 150.14901211 44.83692617 150.16113281 46.25683594 C150.17074036 47.16157654 150.1803479 48.06631714 150.19024658 48.99847412 C150.1966214 50.47649506 150.1966214 50.47649506 150.203125 51.984375 C150.20882507 52.99211975 150.21452515 53.9998645 150.22039795 55.03814697 C150.2298659 57.17678777 150.23638902 59.31544327 150.24023438 61.45410156 C150.24991783 64.72226618 150.28091543 67.98979625 150.3125 71.2578125 C150.31903195 73.33332959 150.32428167 75.40885119 150.328125 77.484375 C150.3404718 78.46162537 150.3528186 79.43887573 150.36553955 80.44573975 C150.33688905 89.20337016 150.33688905 89.20337016 147 93 C143.64798717 95.14212523 140.91198551 95.253168 136.97866821 95.26069641 C135.74495987 95.26778122 134.51125153 95.27486603 133.24015808 95.28216553 C131.87576257 95.27987177 130.51136741 95.27736208 129.14697266 95.2746582 C127.70785762 95.27900617 126.2687449 95.2841896 124.82963562 95.29014587 C120.92254336 95.30353915 117.01554781 95.30411411 113.10843706 95.30158257 C109.84555799 95.30051292 106.5826985 95.30539616 103.31982362 95.310188 C95.62075295 95.32128466 87.92173106 95.32171992 80.22265625 95.31567383 C72.28373464 95.30963515 64.34499032 95.32194194 56.40609896 95.3432439 C49.58728583 95.36086675 42.7685291 95.36686012 35.94969404 95.36360615 C31.87838699 95.36179399 27.80720636 95.36442265 23.73591995 95.37832069 C19.90601483 95.39090532 16.07638569 95.38894908 12.24648476 95.37590981 C10.84285069 95.37354571 9.43919716 95.37627277 8.0355854 95.38453293 C6.1155155 95.39501534 4.19536684 95.38508877 2.27529907 95.3742218 C1.20199656 95.37438954 0.12869404 95.37455729 -0.9771328 95.37473011 C-4.52575077 94.93482524 -6.93629316 93.81525524 -10 92 C-12.0107333 89.18410958 -12.25774873 86.81314406 -12.29052734 83.40258789 C-12.30328705 82.49807388 -12.31604675 81.59355988 -12.32919312 80.66163635 C-12.33141876 79.69177292 -12.33364441 78.72190948 -12.3359375 77.72265625 C-12.3425943 76.71915634 -12.3492511 75.71565643 -12.35610962 74.68174744 C-12.36622729 72.56104361 -12.37092691 70.44030801 -12.37060547 68.31958008 C-12.37497942 65.07775394 -12.41131123 61.83728852 -12.44921875 58.59570312 C-12.45508693 56.53385882 -12.45905631 54.47200805 -12.4609375 52.41015625 C-12.47530853 51.44231705 -12.48967957 50.47447784 -12.50448608 49.47731018 C-12.47504545 45.13452822 -12.42707238 42.68836532 -10.09619141 38.93139648 C-6.57029193 35.68269036 -4.86348791 35 0 35 C0 23.45 0 11.9 0 0 Z M-4 45 C-4.31138879 46.87550358 -4.31138879 46.87550358 -4.2746582 49.03491211 C-4.28419022 49.86594955 -4.29372223 50.696987 -4.30354309 51.5532074 C-4.30263168 52.45217239 -4.30172028 53.35113739 -4.30078125 54.27734375 C-4.30506638 55.19963272 -4.3093515 56.12192169 -4.31376648 57.07215881 C-4.31951559 59.02490416 -4.32000578 60.97767092 -4.31567383 62.93041992 C-4.31251627 65.92208335 -4.3359573 68.91275599 -4.36132812 71.90429688 C-4.36360126 73.79947792 -4.36430455 75.69466162 -4.36328125 77.58984375 C-4.372491 78.48678452 -4.38170074 79.38372528 -4.39118958 80.30784607 C-4.38496078 81.14203568 -4.37873199 81.97622528 -4.37231445 82.83569336 C-4.37294388 83.5691246 -4.3735733 84.30255585 -4.3742218 85.05821228 C-3.87429807 87.6522508 -3.09148584 88.3963805 -1 90 C1.62733968 90.45578667 1.62733968 90.45578667 4.64878845 90.38768005 C5.82511337 90.39758469 7.00143829 90.40748932 8.21340942 90.41769409 C9.50544281 90.41319244 10.7974762 90.4086908 12.12866211 90.40405273 C13.50191301 90.40975444 14.87515917 90.41671793 16.24839783 90.42485046 C19.97984283 90.44281982 23.71105317 90.44160643 27.44252849 90.43590808 C30.55643557 90.43282149 33.67029724 90.43890279 36.78419787 90.44494683 C44.12985185 90.45900299 51.47538956 90.45742189 58.82104492 90.44604492 C66.40161826 90.43456362 73.98183781 90.44863685 81.56236452 90.4754414 C88.06861615 90.49758678 94.57475665 90.50423839 101.0810433 90.49836498 C104.96789713 90.49499125 108.85452418 90.49743774 112.74134636 90.51461601 C116.39649518 90.5300647 120.05111939 90.5261534 123.70624733 90.50731087 C125.68786046 90.50185781 127.66949703 90.51615503 129.65106201 90.53100586 C130.83020676 90.52117172 132.0093515 90.51133759 133.22422791 90.50120544 C134.24905242 90.50099616 135.27387693 90.50078688 136.32975674 90.50057125 C139.7011222 89.86856568 140.88653821 88.64393832 143 86 C143.58622265 84.06990983 143.58622265 84.06990983 143.50170898 82.02929688 C143.51108994 81.26170044 143.52047089 80.494104 143.53013611 79.70324707 C143.51890213 78.88336304 143.50766815 78.063479 143.49609375 77.21875 C143.49754898 76.36825073 143.49900421 75.51775146 143.50050354 74.64147949 C143.49884601 72.84607512 143.48730097 71.05065634 143.46655273 69.25537109 C143.43759992 66.5094763 143.44594576 63.76551301 143.45898438 61.01953125 C143.45274658 59.27342813 143.44435531 57.5273311 143.43359375 55.78125 C143.43652939 54.96136597 143.43946503 54.14148193 143.44248962 53.29675293 C143.3693385 48.86993374 143.22324589 46.13420444 140 43 C137.340267 42.40213209 137.340267 42.40213209 134.26182556 42.50552368 C133.06578201 42.4971347 131.86973846 42.48874573 130.63745117 42.48010254 C129.32357422 42.49134155 128.00969727 42.50258057 126.65600586 42.51416016 C125.25980778 42.51201453 123.86361145 42.50813718 122.46742249 42.50265503 C118.67402284 42.49295229 114.88109303 42.50827543 111.0877502 42.52856112 C107.12219055 42.54611085 103.15664586 42.54260746 99.1910553 42.5418396 C92.5321566 42.54371326 85.87344008 42.56108699 79.21459961 42.58837891 C71.50910513 42.61984335 63.80381013 42.6303747 56.09825605 42.6289078 C48.69307043 42.62768833 41.28794996 42.63788841 33.88278389 42.65449142 C30.72771255 42.6615637 27.57266426 42.66521886 24.41758537 42.66627884 C20.70509569 42.66828374 16.99277436 42.68046052 13.28034019 42.70061111 C11.26258442 42.70926681 9.24479412 42.70811589 7.22702026 42.70672607 C6.03379654 42.71525604 4.84057281 42.72378601 3.6111908 42.73257446 C2.04906561 42.737602 2.04906561 42.737602 0.45538235 42.74273109 C-2.17788437 42.75817004 -2.17788437 42.75817004 -4 45 Z " fill="#23411C" transform="translate(495,0)"/>
<path d="M0 0 C10.54203264 8.02816332 19.84305066 18.1536806 23 31.35546875 C23.97307765 34.38130644 23.97307765 34.38130644 27.01953125 35.37109375 C28.13972656 35.61859375 29.25992188 35.86609375 30.4140625 36.12109375 C36.54338761 37.72477526 39.8253511 39.6175286 44.2265625 44.12109375 C44.0390625 46.49609375 44.0390625 46.49609375 43.2265625 49.12109375 C41.58104288 49.83837153 39.91233961 50.50434603 38.2265625 51.12109375 C37.9378125 51.74113281 37.6490625 52.36117187 37.3515625 53 C35.91272393 55.71281022 34.2838184 56.44021946 31.6640625 57.99609375 C28.53922276 60.32352622 27.38447611 61.41877081 26.51953125 65.265625 C26.40516097 67.67803994 26.33528852 70.09288186 26.3046875 72.5078125 C25.94786452 89.01087528 16.53014154 104.19596539 4.921875 115.33203125 C-5.86176489 124.5599985 -18.16923298 129.05347901 -31.7734375 132.12109375 C-31.7734375 134.10109375 -31.7734375 136.08109375 -31.7734375 138.12109375 C-30.5771875 137.91484375 -29.3809375 137.70859375 -28.1484375 137.49609375 C-24.2158357 136.98527537 -21.4613132 137.55374658 -17.7734375 139.12109375 C-17.7734375 140.11109375 -17.7734375 141.10109375 -17.7734375 142.12109375 C-19.7534375 142.12109375 -21.7334375 142.12109375 -23.7734375 142.12109375 C-22.7834375 143.11109375 -21.7934375 144.10109375 -20.7734375 145.12109375 C-21.1034375 146.11109375 -21.4334375 147.10109375 -21.7734375 148.12109375 C-24.26705321 146.91727927 -26.45486833 145.66680653 -28.7734375 144.12109375 C-31.51216705 143.66337312 -31.51216705 143.66337312 -34.4609375 143.49609375 C-35.45480469 143.42132812 -36.44867188 143.3465625 -37.47265625 143.26953125 C-38.23191406 143.22054687 -38.99117188 143.1715625 -39.7734375 143.12109375 C-39.7734375 142.13109375 -39.7734375 141.14109375 -39.7734375 140.12109375 C-38.1234375 139.79109375 -36.4734375 139.46109375 -34.7734375 139.12109375 C-35.4334375 137.14109375 -36.0934375 135.16109375 -36.7734375 133.12109375 C-37.835625 133.13269531 -38.8978125 133.14429688 -39.9921875 133.15625 C-53.93015371 133.26164105 -53.93015371 133.26164105 -60.7734375 132.12109375 C-60.4434375 134.76109375 -60.1134375 137.40109375 -59.7734375 140.12109375 C-55.8134375 140.12109375 -51.8534375 140.12109375 -47.7734375 140.12109375 C-47.7734375 141.44109375 -47.7734375 142.76109375 -47.7734375 144.12109375 C-49.0934375 144.12109375 -50.4134375 144.12109375 -51.7734375 144.12109375 C-51.1134375 144.78109375 -50.4534375 145.44109375 -49.7734375 146.12109375 C-49.7734375 147.11109375 -49.7734375 148.10109375 -49.7734375 149.12109375 C-51.91123478 148.66299433 -53.62996728 148.2056387 -55.5234375 147.08984375 C-58.46445455 145.82357252 -60.83485275 145.92677669 -64.0234375 145.99609375 C-65.10109375 146.01414062 -66.17875 146.0321875 -67.2890625 146.05078125 C-68.10890625 146.07398438 -68.92875 146.0971875 -69.7734375 146.12109375 C-69.5234375 144.24609375 -69.5234375 144.24609375 -68.7734375 142.12109375 C-67.4534375 141.46109375 -66.1334375 140.80109375 -64.7734375 140.12109375 C-64.7734375 137.15109375 -64.7734375 134.18109375 -64.7734375 131.12109375 C-65.82917969 130.91806641 -65.82917969 130.91806641 -66.90625 130.7109375 C-80.39385457 127.77042841 -91.09219705 121.93547503 -100.7734375 112.12109375 C-101.35738281 111.5796875 -101.94132812 111.03828125 -102.54296875 110.48046875 C-103.7734375 109.12109375 -103.7734375 109.12109375 -103.7734375 107.12109375 C-105.2584375 107.61609375 -105.2584375 107.61609375 -106.7734375 108.12109375 C-114.34053625 108.64296263 -121.10265981 107.35521983 -127.3359375 102.80859375 C-129.7734375 100.12109375 -129.7734375 100.12109375 -130.3984375 96.99609375 C-129.7734375 94.12109375 -129.7734375 94.12109375 -127.7734375 92.24609375 C-127.1134375 91.87484375 -126.4534375 91.50359375 -125.7734375 91.12109375 C-126.25554687 90.67378906 -126.73765625 90.22648437 -127.234375 89.765625 C-133.92538096 83.36137644 -133.92538096 83.36137644 -134.7734375 79.12109375 C-134.6484375 75.43359375 -134.6484375 75.43359375 -133.7734375 72.12109375 C-131.42292453 70.03174889 -130.08320431 70.10732634 -126.9609375 70.24609375 C-123.06684721 71.31505971 -120.24960072 73.07242004 -116.7734375 75.12109375 C-116.78914795 74.55825684 -116.8048584 73.99541992 -116.82104492 73.41552734 C-117.41914657 48.64856693 -112.7720716 27.18435852 -95.27734375 8.53515625 C-69.07460157 -16.72739393 -30.05133222 -20.35871943 0 0 Z M-93.16796875 11.32421875 C-107.70088798 26.92477373 -114.07211758 46.53391185 -113.9375 67.6015625 C-113.72037826 72.25934074 -112.92957474 76.61469019 -111.7734375 81.12109375 C-111.58652344 81.87132812 -111.39960937 82.6215625 -111.20703125 83.39453125 C-110.99240234 84.24917969 -110.99240234 84.24917969 -110.7734375 85.12109375 C-111.20914063 84.74597656 -111.64484375 84.37085938 -112.09375 83.984375 C-113.33843601 82.91480715 -114.58601425 81.84859902 -115.8359375 80.78515625 C-117.03686609 79.75371355 -118.22680738 78.70913746 -119.3984375 77.64453125 C-122.40992208 74.9624278 -124.66503543 73.23213164 -128.7734375 73.12109375 C-130.2584375 74.11109375 -130.2584375 74.11109375 -131.7734375 75.12109375 C-129.42073445 85.9288234 -122.34915804 90.30436914 -113.4609375 96.0546875 C-112.9040625 96.40660156 -112.3471875 96.75851562 -111.7734375 97.12109375 C-113.2584375 96.62609375 -113.2584375 96.62609375 -114.7734375 96.12109375 C-118.85938583 94.93458115 -122.53686144 94.97244196 -126.7734375 95.12109375 C-126.81854111 97.50006378 -126.81854111 97.50006378 -125.7734375 100.12109375 C-119.51542745 104.91446315 -112.85698168 105.61393529 -105.1484375 104.68359375 C-103.9728125 104.40515625 -103.9728125 104.40515625 -102.7734375 104.12109375 C-102.38414063 104.68957031 -101.99484375 105.25804687 -101.59375 105.84375 C-94.65296944 115.42330658 -85.74741726 120.96645389 -74.7734375 125.12109375 C-73.74476563 125.51554688 -72.71609375 125.91 -71.65625 126.31640625 C-52.3261791 132.58443378 -29.64908295 130.8577843 -11.3359375 122.30859375 C4.96522239 113.47512738 15.62568456 100.07811944 21.390625 82.58984375 C23.0431242 76.10339828 24.68843678 68.76914106 23.2265625 62.12109375 C20.50506067 59.64002499 20.50506067 59.64002499 17.2265625 58.12109375 C14.8971196 55.24811417 14.27469298 53.48551027 13.7890625 49.80859375 C14.42392299 44.45762673 16.39425566 39.95340059 20.2265625 36.12109375 C19.25431057 23.82905155 10.79679945 14.19917812 2.140625 6.19140625 C-26.26261613 -17.56595157 -66.96738238 -13.62872065 -93.16796875 11.32421875 Z " fill="#291A12" transform="translate(219.7734375,396.87890625)"/>
<path d="M0 0 C40.26 0 80.52 0 122 0 C122 1.98 122 3.96 122 6 C88.01 6 54.02 6 19 6 C19 22.83 19 39.66 19 57 C12.73 57 6.46 57 0 57 C0 38.19 0 19.38 0 0 Z " fill="#417934" transform="translate(503,593)"/>
<path d="M0 0 C6.27 0 12.54 0 19 0 C19 9.9 19 19.8 19 30 C52.99 30 86.98 30 122 30 C122 31.98 122 33.96 122 36 C81.74 36 41.48 36 0 36 C0 24.12 0 12.24 0 0 Z " fill="#417933" transform="translate(503,0)"/>
<path d="M0 0 C1.77315834 -0.00618599 1.77315834 -0.00618599 3.58213806 -0.01249695 C5.52961441 0.00368179 5.52961441 0.00368179 7.51643372 0.02018738 C8.89616884 0.02103351 10.27590531 0.02055877 11.65563965 0.01885986 C15.40339435 0.01799795 19.15086191 0.03565517 22.8985498 0.05658174 C26.81431996 0.07531601 30.73009647 0.07709641 34.64590454 0.08065796 C42.06197178 0.089988 49.47790659 0.1146147 56.89391547 0.14470643 C65.33636921 0.17822064 73.77882922 0.19472894 82.22133291 0.20979273 C99.5890636 0.24116347 116.95666532 0.29394254 134.32429504 0.36076355 C134.32429504 0.69076355 134.32429504 1.02076355 134.32429504 1.36076355 C93.40429504 1.36076355 52.48429504 1.36076355 10.32429504 1.36076355 C10.32429504 16.54076355 10.32429504 31.72076355 10.32429504 47.36076355 C4.71429504 47.36076355 -0.89570496 47.36076355 -6.67570496 47.36076355 C-9.04028554 44.99618297 -8.93019017 44.53362148 -8.95036316 41.32585144 C-8.95989517 40.494814 -8.96942719 39.66377655 -8.97924805 38.80755615 C-8.97833664 37.90859116 -8.97742523 37.00962616 -8.97648621 36.0834198 C-8.98077133 35.16113083 -8.98505646 34.23884186 -8.98947144 33.28860474 C-8.99522054 31.33585939 -8.99571074 29.38309263 -8.99137878 27.43034363 C-8.98822123 24.4386802 -9.01166225 21.44800756 -9.03703308 18.45646667 C-9.03930621 16.56128563 -9.04000951 14.66610193 -9.03898621 12.7709198 C-9.04819595 11.87397903 -9.0574057 10.97703827 -9.06689453 10.05291748 C-9.06066574 9.21872787 -9.05443695 8.38453827 -9.04801941 7.52507019 C-9.04864883 6.79163895 -9.04927826 6.0582077 -9.04992676 5.30255127 C-8.07779494 0.25828712 -4.53138865 -0.01217025 0 0 Z " fill="#457E36" transform="translate(499.6757049560547,538.6392364501953)"/>
<path d="M0 0 C5.32713193 2.77286997 8.12996179 6.71801038 9.99609375 12.31640625 C10.9420845 24.92355222 10.9420845 24.92355222 6.99609375 30.31640625 C4.11037006 33.27487927 1.24523573 35.93012062 -3.00390625 36.31640625 C-4.61265625 36.47109375 -4.61265625 36.47109375 -6.25390625 36.62890625 C-12.08363042 36.1430959 -16.24938467 34.07092783 -20.37890625 29.94140625 C-24.41306681 23.42468535 -24.52453591 17.71019248 -23.00390625 10.31640625 C-18.42215619 1.31654006 -9.88708736 -3.37278809 0 0 Z " fill="#FDFBEC" transform="translate(211.00390625,418.68359375)"/>
<path d="M0 0 C5.61 0 11.22 0 17 0 C17 15.18 17 30.36 17 46 C57.92 46 98.84 46 141 46 C141 46.33 141 46.66 141 47 C122.7981024 47.07003081 104.59623969 47.12295904 86.39423656 47.15543652 C77.94303577 47.1709161 69.49191861 47.19202638 61.04077148 47.22631836 C53.67614017 47.25618741 46.31156941 47.27556706 38.94687921 47.28226548 C35.0460497 47.286182 31.14539344 47.2954088 27.24461937 47.31719017 C23.57485659 47.33751606 19.90533885 47.34384179 16.23552513 47.33932304 C14.24293269 47.34054502 12.25036708 47.35670752 10.25784302 47.3732605 C9.07573746 47.36913651 7.8936319 47.36501251 6.67570496 47.36076355 C5.64606219 47.36352893 4.61641943 47.36629431 3.55557537 47.36914349 C1 47 1 47 -0.8313427 45.59881401 C-2.32607157 43.55390875 -2.374477 42.35557672 -2.37231445 39.83569336 C-2.37854324 39.00150375 -2.38477203 38.16731415 -2.39118958 37.30784607 C-2.38197983 36.4109053 -2.37277008 35.51396454 -2.36328125 34.58984375 C-2.36377975 33.66659805 -2.36427826 32.74335236 -2.36479187 31.79212952 C-2.36245179 29.8411341 -2.35272717 27.89013564 -2.33618164 25.93920898 C-2.31256333 22.94552772 -2.31562432 19.95273527 -2.32226562 16.95898438 C-2.31668981 15.06509883 -2.30958054 13.17121706 -2.30078125 11.27734375 C-2.30169266 10.37837875 -2.30260406 9.47941376 -2.30354309 8.5532074 C-2.29401108 7.72216995 -2.28447906 6.89113251 -2.2746582 6.03491211 C-2.27005081 5.30227646 -2.26544342 4.56964081 -2.26069641 3.81480408 C-2 2 -2 2 0 0 Z " fill="#457E36" transform="translate(493,43)"/>
<path d="M0 0 C0.4125 0.556875 0.825 1.11375 1.25 1.6875 C1.8275 2.450625 2.405 3.21375 3 4 C3.804375 5.1446875 3.804375 5.1446875 4.625 6.3125 C7.62197096 9.70380924 10.95620587 11.89207369 14.75 14.3125 C15.44738281 14.76689453 16.14476563 15.22128906 16.86328125 15.68945312 C18.57068558 16.80043539 20.28469011 17.90126295 22 19 C19.27763211 20.36118395 17.80223871 19.41390806 15.01953125 18.546875 C11.71752697 17.65271523 8.39812319 17.35769718 5 17 C5.90232985 20.33862045 6.63069461 21.74148623 9.5 23.75 C15.91629997 26.0415357 22.33264787 26.57910971 29 25 C29.58394531 25.85271484 29.58394531 25.85271484 30.1796875 26.72265625 C37.12046806 36.30221283 46.02602024 41.84536014 57 46 C58.02867187 46.39445313 59.05734375 46.78890625 60.1171875 47.1953125 C77.36125053 52.78692477 96.93285522 51.58709399 114 46 C116.32898395 45.31713845 118.66408251 44.65892463 121 44 C121.33 44.99 121.66 45.98 122 47 C114.7282249 49.94467554 107.72329019 52.56006454 100 54 C100 55.98 100 57.96 100 60 C101.19625 59.79375 102.3925 59.5875 103.625 59.375 C107.5576018 58.86418162 110.3121243 59.43265283 114 61 C114 61.99 114 62.98 114 64 C112.02 64 110.04 64 108 64 C108.99 64.99 109.98 65.98 111 67 C110.505 68.485 110.505 68.485 110 70 C107.50638429 68.79618552 105.31856917 67.54571278 103 66 C100.26127045 65.54227937 100.26127045 65.54227937 97.3125 65.375 C96.31863281 65.30023437 95.32476562 65.22546875 94.30078125 65.1484375 C93.54152344 65.09945312 92.78226562 65.05046875 92 65 C92 64.01 92 63.02 92 62 C93.65 61.67 95.3 61.34 97 61 C96.01 58.03 96.01 58.03 95 55 C93.9378125 55.01160156 92.875625 55.02320313 91.78125 55.03515625 C77.84328379 55.1405473 77.84328379 55.1405473 71 54 C71.495 57.96 71.495 57.96 72 62 C75.96 62 79.92 62 84 62 C84 63.32 84 64.64 84 66 C82.68 66 81.36 66 80 66 C80.66 66.66 81.32 67.32 82 68 C82 68.99 82 69.98 82 71 C79.86220272 70.54190058 78.14347022 70.08454495 76.25 68.96875 C73.30898295 67.70247877 70.93858475 67.80568294 67.75 67.875 C66.67234375 67.89304687 65.5946875 67.91109375 64.484375 67.9296875 C63.66453125 67.95289063 62.8446875 67.97609375 62 68 C62.25 66.125 62.25 66.125 63 64 C64.32 63.34 65.64 62.68 67 62 C67 59.03 67 56.06 67 53 C66.29617187 52.86464844 65.59234375 52.72929688 64.8671875 52.58984375 C51.37958293 49.64933466 40.68124045 43.81438128 31 34 C30.12408203 33.18789063 30.12408203 33.18789063 29.23046875 32.359375 C28 31 28 31 28 29 C27.01 29.33 26.02 29.66 25 30 C17.43290125 30.52186888 10.67077769 29.23412608 4.4375 24.6875 C2 22 2 22 1.375 18.875 C2 16 2 16 4 14.125 C4.66 13.75375 5.32 13.3825 6 13 C5.50628906 12.52949219 5.01257813 12.05898438 4.50390625 11.57421875 C3.86324219 10.95160156 3.22257812 10.32898438 2.5625 9.6875 C1.92441406 9.07261719 1.28632812 8.45773437 0.62890625 7.82421875 C-1 6 -1 6 -2 3 C-1.34 3 -0.68 3 0 3 C0 2.01 0 1.02 0 0 Z " fill="#281A12" transform="translate(88,475)"/>
<path d="M0 0 C0.99 0.99 0.99 0.99 2 2 C-9.87334128 18.49287278 -25.03962271 27.60811347 -45 31 C-46.83848168 31.07790887 -48.67942827 31.10793615 -50.51953125 31.09765625 C-51.54111328 31.09443359 -52.56269531 31.09121094 -53.61523438 31.08789062 C-54.67033203 31.07951172 -55.72542969 31.07113281 -56.8125 31.0625 C-57.88693359 31.05798828 -58.96136719 31.05347656 -60.06835938 31.04882812 C-62.71229683 31.03707729 -65.35611952 31.02064787 -68 31 C-67 28 -67 28 -64 26 C-65.32 26.33 -66.64 26.66 -68 27 C-67.34 25.02 -66.68 23.04 -66 21 C-65.34 21 -64.68 21 -64 21 C-63.690625 20.195625 -63.38125 19.39125 -63.0625 18.5625 C-62 16 -62 16 -61 15 C-55.35367272 14.72177518 -49.58667788 14.60655734 -44 15.5625 C-40.85245353 16.02151719 -39.07988489 15.68054114 -36 15 C-34.88367188 14.79761719 -33.76734375 14.59523438 -32.6171875 14.38671875 C-20.03937484 12.03658465 -9.31550534 9.31550534 0 0 Z " fill="#E3A53E" transform="translate(231,495)"/>
<path d="M0 0 C6.10419901 1.2457549 9.54831603 3.69715653 14 8 C13.8125 10.375 13.8125 10.375 13 13 C11.35448038 13.71727778 9.68577711 14.38325228 8 15 C7.71125 15.62003906 7.4225 16.24007813 7.125 16.87890625 C5.68616143 19.59171647 4.0572559 20.31912571 1.4375 21.875 C-1.68733974 24.20243247 -2.84208639 25.29767706 -3.70703125 29.14453125 C-3.82140153 31.55694619 -3.89127398 33.97178811 -3.921875 36.38671875 C-4.25323096 51.7119321 -12.543622 66.22057942 -23 77 C-35.26079734 88 -35.26079734 88 -41 88 C-41 87.01 -41 86.02 -41 85 C-38.62109375 83.203125 -38.62109375 83.203125 -35.4375 81.25 C-21.40986898 72.17814003 -12.42966296 58.53575961 -8.75 42.125 C-7.65601646 35.80879316 -7.35004327 29.39289557 -7 23 C-7.63421875 22.72414063 -8.2684375 22.44828125 -8.921875 22.1640625 C-11.69544432 20.6104466 -12.06607784 18.95742018 -13 16 C-9.7 16 -6.4 16 -3 16 C-3 15.01 -3 14.02 -3 13 C-6.63 13 -10.26 13 -14 13 C-11.25 4.25 -11.25 4.25 -9 2 C-6.31160615 1.73008094 -3.70858064 1.91262643 -1 2 C-0.67 1.34 -0.34 0.68 0 0 Z " fill="#2A1B13" transform="translate(250,433)"/>
<path d="M0 0 C-0.73605469 0.50789063 -1.47210938 1.01578125 -2.23046875 1.5390625 C-11.99491796 8.14588259 -11.99491796 8.14588259 -18 18 C-17.69196545 21.18522204 -17.69196545 21.18522204 -17 24 C-11.53348042 24.4555433 -8.43447571 23.54035223 -3.69921875 20.77734375 C-3.13847656 20.52082031 -2.57773438 20.26429688 -2 20 C-1.34 20.33 -0.68 20.66 0 21 C-0.84884766 21.77923828 -0.84884766 21.77923828 -1.71484375 22.57421875 C-2.44832031 23.27160156 -3.18179688 23.96898437 -3.9375 24.6875 C-5.03384766 25.71423828 -5.03384766 25.71423828 -6.15234375 26.76171875 C-8.21728203 29.26321903 -8.83424358 30.77577026 -9 34 C-7.16178756 36.20801257 -7.16178756 36.20801257 -4.5 36.5 C1.81782833 35.5974531 6.77578729 31.48280847 12 28 C10.69267618 30.91633776 9.24135944 32.75864056 7 35 C7 35.66 7 36.32 7 37 C13.2884043 37.68600774 16.77452399 36.64989521 21.88671875 32.90625 C30.03171284 25.55919434 32.09264943 16.53004218 33 6 C35.60845923 8.60845923 35.35780384 9.8621047 35.4375 13.5 C35.26044689 22.20684715 32.00531959 28.15676955 26.125 34.4375 C20.59113867 39.55761469 15.55847063 41.34045366 8.11328125 41.30078125 C6 41 6 41 3.91796875 39.91796875 C1.86080106 38.66039863 1.86080106 38.66039863 -1 40 C-5.37504473 40.48611608 -7.32600135 40.46337407 -11 37.9375 C-13 35 -13 35 -12.8125 31.1875 C-12.544375 30.135625 -12.27625 29.08375 -12 28 C-12.9075 28.103125 -13.815 28.20625 -14.75 28.3125 C-18 28 -18 28 -20.4375 26.0625 C-22.29948893 22.41300171 -22.45977624 20.32660295 -21.796875 16.3359375 C-19.26021976 8.90005596 -8.224866 -2.4674598 0 0 Z " fill="#2C1B12" transform="translate(137,456)"/>
<path d="M0 0 C5.32713193 2.77286997 8.12996179 6.71801038 9.99609375 12.31640625 C10.9420845 24.92355222 10.9420845 24.92355222 6.99609375 30.31640625 C4.11037006 33.27487927 1.24523573 35.93012062 -3.00390625 36.31640625 C-4.61265625 36.47109375 -4.61265625 36.47109375 -6.25390625 36.62890625 C-12.08363042 36.1430959 -16.24938467 34.07092783 -20.37890625 29.94140625 C-24.41306681 23.42468535 -24.52453591 17.71019248 -23.00390625 10.31640625 C-18.42215619 1.31654006 -9.88708736 -3.37278809 0 0 Z M-17.00390625 6.31640625 C-20.51714864 10.28297024 -21.13723475 15.14326044 -21.00390625 20.31640625 C-19.38798273 26.01966573 -16.99155427 29.11678299 -12.00390625 32.31640625 C-7.5404404 33.8966395 -4.01449329 33.64178646 0.30859375 31.75390625 C4.11836209 29.53840246 5.73526856 27.65049284 6.99609375 23.31640625 C7.63101989 17.92355259 7.7023795 13.72897774 5.24609375 8.81640625 C1.48072787 4.63266638 -1.00260579 2.7224833 -6.84375 2.1875 C-10.78693208 2.42280743 -13.83765281 4.0329101 -17.00390625 6.31640625 Z " fill="#2F1E12" transform="translate(211.00390625,418.68359375)"/>
<path d="M0 0 C2.34178935 1.81299821 2.85911458 3.16735132 3.34765625 6.0546875 C3.61669728 10.15238935 3.34884468 13.21887616 0.9375 16.625 C-2 19 -2 19 -5.625 19.125 C-9 18 -9 18 -10.9375 16.5 C-12.56319754 12.67482931 -12.5543284 9.09181882 -12 5 C-9.12145849 -1.28045421 -6.57636351 -1.49987238 0 0 Z " fill="#110E0F" transform="translate(214,429)"/>
<path d="M0 0 C18.15 0 36.3 0 55 0 C51 4 51 4 48.58282471 4.48101807 C47.68569763 4.47213562 46.78857056 4.46325317 45.86425781 4.45410156 C44.33312347 4.45364838 44.33312347 4.45364838 42.77105713 4.45318604 C41.67613953 4.43254089 40.58122192 4.41189575 39.453125 4.390625 C38.3267865 4.38496521 37.200448 4.37930542 36.03997803 4.37347412 C32.44288618 4.35108545 28.84679074 4.30088213 25.25 4.25 C22.8112123 4.22993833 20.37240899 4.21168698 17.93359375 4.1953125 C11.95538926 4.15121244 5.97776581 4.08427463 0 4 C0 2.68 0 1.36 0 0 Z " fill="#2B4E21" transform="translate(510,535)"/>
<path d="M0 0 C17.49 0 34.98 0 53 0 C53.495 1.98 53.495 1.98 54 4 C36.18 4 18.36 4 0 4 C0 2.68 0 1.36 0 0 Z " fill="#2B4E21" transform="translate(510,90)"/>
<path d="M0 0 C0.33 0.66 0.66 1.32 1 2 C1.66 2 2.32 2 3 2 C3.66 2.66 4.32 3.32 5 4 C5.66 3.67 6.32 3.34 7 3 C7 3.66 7 4.32 7 5 C7.66 5 8.32 5 9 5 C9 4.34 9 3.68 9 3 C10.051875 3.185625 11.10375 3.37125 12.1875 3.5625 C15.62363423 3.95681049 17.70437302 3.73236155 21 3 C21.99 3.33 22.98 3.66 24 4 C24.66 3.67 25.32 3.34 26 3 C26.495 4.485 26.495 4.485 27 6 C13.95721224 10.24032578 1.63706311 10.46604054 -12 10 C-10.77065985 6.31197956 -9.06140622 5.27643027 -6 3 C-5.34 3.33 -4.68 3.66 -4 4 C-3.67 3.34 -3.34 2.68 -3 2 C-2.01 2 -1.02 2 0 2 C0 1.34 0 0.68 0 0 Z " fill="#D99237" transform="translate(175,516)"/>
<path d="M0 0 C5.87734184 0.09982746 11.115269 3.73601048 16.125 6.5 C16.125 7.49 16.125 8.48 16.125 9.5 C8.21888645 12.13537118 0.35634837 11.67981101 -7.875 11.5 C-7.42417531 10.03932801 -6.96406463 8.58151968 -6.5 7.125 C-6.24476563 6.31289063 -5.98953125 5.50078125 -5.7265625 4.6640625 C-4.43484829 1.38144931 -3.48931733 0.6068378 0 0 Z " fill="#EBB944" transform="translate(243.875,434.5)"/>
<path d="M0 0 C0.66 0.66 1.32 1.32 2 2 C-7.6357946 9.98865023 -20.65069237 13.33163265 -32.99609375 13.859375 C-35.07230438 13.87635901 -35.07230438 13.87635901 -37 15 C-38.89933372 14.9106535 -40.79581039 14.75475453 -42.6875 14.5625 C-50.51902235 13.43908423 -50.51902235 13.43908423 -58 15 C-58.33 14.01 -58.66 13.02 -59 12 C-59.66 11.67 -60.32 11.34 -61 11 C-61 10.34 -61 9.68 -61 9 C-59.37964844 9.23976563 -59.37964844 9.23976563 -57.7265625 9.484375 C-40.87124087 11.57369399 -22.32563506 11.60750235 -7.18359375 3.18359375 C-4.84919308 1.91825671 -2.47904274 0.94543458 0 0 Z " fill="#EFBD45" transform="translate(226,497)"/>
<path d="M0 0 C4.44038244 2.09452002 7.96461372 4.97490826 11.3125 8.5625 C11.6425 9.5525 11.9725 10.5425 12.3125 11.5625 C11.6525 11.5625 10.9925 11.5625 10.3125 11.5625 C9.9825 12.5525 9.6525 13.5425 9.3125 14.5625 C9.3125 13.9025 9.3125 13.2425 9.3125 12.5625 C8.6525 12.5625 7.9925 12.5625 7.3125 12.5625 C7.3125 11.9025 7.3125 11.2425 7.3125 10.5625 C6.425625 10.418125 5.53875 10.27375 4.625 10.125 C1.84132354 9.65230022 -0.92233757 9.13179815 -3.6875 8.5625 C-4.3475 6.2525 -5.0075 3.9425 -5.6875 1.5625 C-2.6875 -0.4375 -2.6875 -0.4375 0 0 Z " fill="#ECBA43" transform="translate(93.6875,470.4375)"/>
<path d="M0 0 C0.66 0.33 1.32 0.66 2 1 C1.18958252 1.5983667 0.37916504 2.1967334 -0.45581055 2.81323242 C-4.38908278 6.77910634 -3.72727657 11.71602099 -3.70703125 16.98828125 C-3.72215256 18.04661667 -3.73727386 19.10495209 -3.75285339 20.19535828 C-3.79576159 23.56795506 -3.80457181 26.93965734 -3.8125 30.3125 C-3.83564174 32.60223738 -3.86100639 34.89195344 -3.88867188 37.18164062 C-3.95155495 42.78776887 -3.98646443 48.39354712 -4 54 C-6.42717975 51.57282025 -6.2587483 50.95470481 -6.29052734 47.62963867 C-6.30328705 46.7249736 -6.31604675 45.82030853 -6.32919312 44.88822937 C-6.33141876 43.90804337 -6.33364441 42.92785736 -6.3359375 41.91796875 C-6.3425943 40.91163895 -6.3492511 39.90530914 -6.35610962 38.8684845 C-6.36624895 36.73582796 -6.37092624 34.6031396 -6.37060547 32.47045898 C-6.37496869 29.21089074 -6.41124792 25.95268696 -6.44921875 22.69335938 C-6.45508864 20.62240047 -6.45905688 18.55143512 -6.4609375 16.48046875 C-6.47530853 15.50635544 -6.48967957 14.53224213 -6.50448608 13.52861023 C-6.47510241 9.16340311 -6.42548178 6.69114871 -4.09619141 2.9074707 C-2 1 -2 1 0 0 Z " fill="#153229" transform="translate(489,36)"/>
<path d="M0 0 C6.57315478 -0.36517527 11.79485526 0.86380263 18 3 C17.67 3.66 17.34 4.32 17 5 C16.01 5.33 15.02 5.66 14 6 C13.67 6.99 13.34 7.98 13 9 C8.3072192 8.53992345 4.70154745 8.04833319 1 5 C0.1875 2.3125 0.1875 2.3125 0 0 Z " fill="#DD9C3A" transform="translate(93,492)"/>
<path d="M0 0 C2 2 2 2 2.22705078 5.80712891 C2.22673346 7.4469742 2.21539681 9.08684017 2.1953125 10.7265625 C2.1924826 11.58937836 2.18965271 12.45219421 2.18673706 13.34115601 C2.17552333 16.1025772 2.15041684 18.8636765 2.125 21.625 C2.11497173 23.49478699 2.10584562 25.36457905 2.09765625 27.234375 C2.07558012 31.82304109 2.04104234 36.41146593 2 41 C1.01 41.495 1.01 41.495 0 42 C-0.8757433 33.29543078 -1.1538155 24.68300313 -1.125 15.9375 C-1.12886719 14.72900391 -1.13273438 13.52050781 -1.13671875 12.27539062 C-1.13542969 11.12103516 -1.13414062 9.96667969 -1.1328125 8.77734375 C-1.13168457 7.73827881 -1.13055664 6.69921387 -1.12939453 5.62866211 C-1 3 -1 3 0 0 Z " fill="#5C9A3E" transform="translate(636,45)"/>
<path d="M0 0 C0.33 0.66 0.66 1.32 1 2 C-0.38234878 3.03902033 -1.78155791 4.05563446 -3.1875 5.0625 C-3.96480469 5.63097656 -4.74210938 6.19945312 -5.54296875 6.78515625 C-8 8 -8 8 -10.6875 7.8046875 C-13.58050546 6.79799979 -14.48889618 5.62454874 -16 3 C-16 2.34 -16 1.68 -16 1 C-8.08 0.505 -8.08 0.505 0 0 Z " fill="#C06A29" transform="translate(253,448)"/>
<path d="M0 0 C1.32 0 2.64 0 4 0 C4 0.66 4 1.32 4 2 C5.918125 2.185625 5.918125 2.185625 7.875 2.375 C11.75 2.75 11.75 2.75 14 5 C9.82561234 7.38536438 6.83415572 8.6445541 2 8 C0.0625 6.8125 0.0625 6.8125 -1 5 C-0.6875 2.3125 -0.6875 2.3125 0 0 Z " fill="#E7B041" transform="translate(128,485)"/>
<path d="M0 0 C6.33393082 -0.34548714 11.10261508 0.70657253 17 3 C13.29583874 5.37590142 10.07015427 5.20500286 5.75 5.125 C4.48671875 5.10695313 3.2234375 5.08890625 1.921875 5.0703125 C0.95765625 5.04710937 -0.0065625 5.02390625 -1 5 C-0.67 3.35 -0.34 1.7 0 0 Z " fill="#DF9F3C" transform="translate(239,441)"/>
<path d="M0 0 C3.36241563 0.45438049 6.04009971 1.35561095 9 3 C9 3.99 9 4.98 9 6 C6.01787087 7.49106457 3.28390342 7.11941467 0 7 C-1 6 -1 6 -1.125 3.5 C-1 1 -1 1 0 0 Z " fill="#EAB543" transform="translate(120,474)"/>
<path d="M0 0 C1.48117801 0.28127421 2.95993249 0.57533732 4.4375 0.875 C5.67306641 1.11863281 5.67306641 1.11863281 6.93359375 1.3671875 C7.61550781 1.57601563 8.29742187 1.78484375 9 2 C9.33 2.66 9.66 3.32 10 4 C6.32589215 5.17571451 2.83070817 5.07366746 -1 5 C-0.67 3.35 -0.34 1.7 0 0 Z " fill="#D99438" transform="translate(246,441)"/>
<path d="M0 0 C1.45792884 -0.05399736 2.91642712 -0.09279177 4.375 -0.125 C5.18710938 -0.14820313 5.99921875 -0.17140625 6.8359375 -0.1953125 C9 0 9 0 11 2 C10.05125 2.28875 9.1025 2.5775 8.125 2.875 C4.94788422 3.76825109 4.94788422 3.76825109 3 6 C0 2.25 0 2.25 0 0 Z " fill="#CE7C2F" transform="translate(237,449)"/>
<path d="M0 0 C0.99 0.33 1.98 0.66 3 1 C1.02 3.31 -0.96 5.62 -3 8 C-3.66 7.01 -4.32 6.02 -5 5 C-3.35 3.35 -1.7 1.7 0 0 Z M-7 6 C-6.34 6.33 -5.68 6.66 -5 7 C-5.99 7 -6.98 7 -8 7 C-7.67 6.67 -7.34 6.34 -7 6 Z " fill="#E9B543" transform="translate(164,488)"/>
<path d="M0 0 C1.98 0 3.96 0 6 0 C6 0.33 6 0.66 6 1 C9.96 1.33 13.92 1.66 18 2 C18 2.33 18 2.66 18 3 C15.37438891 3.08074203 12.75124324 3.1403623 10.125 3.1875 C9.00544922 3.22520508 9.00544922 3.22520508 7.86328125 3.26367188 C5.6953125 3.29296875 5.6953125 3.29296875 2 3 C1.34 2.01 0.68 1.02 0 0 Z " fill="#4B883B" transform="translate(491,583)"/>
<path d="M0 0 C3.2578125 -0.29296875 3.2578125 -0.29296875 7.125 -0.1875 C9.04699219 -0.14689453 9.04699219 -0.14689453 11.0078125 -0.10546875 C11.99523437 -0.07066406 12.98265625 -0.03585938 14 0 C14 0.33 14 0.66 14 1 C10.7 1.33 7.4 1.66 4 2 C4 2.33 4 2.66 4 3 C2.02 3 0.04 3 -2 3 C-1.34 2.01 -0.68 1.02 0 0 Z " fill="#4C893B" transform="translate(493,43)"/>
<path d="M0 0 C0 3.10551666 -0.5393715 4.35261084 -2 7 C-2.66 7 -3.32 7 -4 7 C-3.6875 4.625 -3.6875 4.625 -3 2 C-2.01 1.34 -1.02 0.68 0 0 Z " fill="#E4A73E" transform="translate(151,510)"/>
</svg>
